/* XPM */
static char * close_inactive_xpm[] = {
"34 34 5 1",
" 	c None",
".	c #1A1A1A",
"+	c #333333",
"@	c #999999",
"#	c #222222",
"..................................",
"++++++++++++++++++++++++++++++++++",
"++++++++++++++++++++++++++++++++++",
"++++++++++++++++++++++++++++++++++",
"++++++++++++++++++++++++++++++++++",
"++++++++++++++++++++++++++++++++++",
"++++++++++++++++++++++++++++++++++",
"++++++++++++++++++++++++++++++++++",
"++++++++++++++++++++++++++++++++++",
"++++++++++++++++++++++++++++++++++",
"++++++++++++++++++++++++++++++++++",
"++++++++++++++++++++++++++++++++++",
"+++++++++++++@++++++@+++++++++++++",
"++++++++++++@@@++++@@@++++++++++++",
"+++++++++++++@@@++@@@+++++++++++++",
"++++++++++++++@@@@@@++++++++++++++",
"+++++++++++++++@@@@+++++++++++++++",
"+++++++++++++++@@@@+++++++++++++++",
"++++++++++++++@@@@@@++++++++++++++",
"+++++++++++++@@@++@@@+++++++++++++",
"++++++++++++@@@++++@@@++++++++++++",
"+++++++++++++@++++++@+++++++++++++",
"++++++++++++++++++++++++++++++++++",
"++++++++++++++++++++++++++++++++++",
"++++++++++++++++++++++++++++++++++",
"++++++++++++++++++++++++++++++++++",
"++++++++++++++++++++++++++++++++++",
"++++++++++++++++++++++++++++++++++",
"++++++++++++++++++++++++++++++++++",
"++++++++++++++++++++++++++++++++++",
"++++++++++++++++++++++++++++++++++",
"++++++++++++++++++++++++++++++++++",
"++++++++++++++++++++++++++++++++++",
"##################################"};
