/* XPM */
static char * close_pressed_xpm[] = {
"34 34 6 1",
" 	c None",
".	c #1A1A1A",
"+	c #2B2B2B",
"@	c #222222",
"#	c #F44336",
"$	c #FFFFFF",
"..................................",
"++++++++++++++++++++++++++++++++++",
"++++++++++++++++++++++++++++++++++",
"++++++++++++++++++++++++++++++++++",
"++++++++++++++++++++++++++++++++++",
"+++++@@@@@@@@@@@@@@@@@@@@@@@@+++++",
"+++++@######################@+++++",
"+++++@######################@+++++",
"+++++@######################@+++++",
"+++++@######################@+++++",
"+++++@######################@+++++",
"+++++@######################@+++++",
"+++++@#######$######$#######@+++++",
"+++++@######$$$####$$$######@+++++",
"+++++@#######$$$##$$$#######@+++++",
"+++++@########$$$$$$########@+++++",
"+++++@#########$$$$#########@+++++",
"+++++@#########$$$$#########@+++++",
"+++++@########$$$$$$########@+++++",
"+++++@#######$$$##$$$#######@+++++",
"+++++@######$$$####$$$######@+++++",
"+++++@#######$######$#######@+++++",
"+++++@######################@+++++",
"+++++@######################@+++++",
"+++++@######################@+++++",
"+++++@######################@+++++",
"+++++@######################@+++++",
"+++++@######################@+++++",
"+++++@@@@@@@@@@@@@@@@@@@@@@@@+++++",
"++++++++++++++++++++++++++++++++++",
"++++++++++++++++++++++++++++++++++",
"++++++++++++++++++++++++++++++++++",
"++++++++++++++++++++++++++++++++++",
"@@@@@@@@@@@@@@@@@@@@@@@@@@@@@@@@@@"};
